<svg height="512" viewBox="0 0 60 61" width="512" xmlns="http://www.w3.org/2000/svg"><g id="008---Excercise-Checklist" fill="none"><g id="Icons" transform="translate(1 1)"><path id="Shape" d="m.27 55.84v-50.68c.0055049-1.19455082.9754365-2.16001268 2.17-2.16h43.39c1.1945635-.00001268 2.1644951.96544918 2.17 2.16v50.68c-.0055049 1.1945508-.9754365 2.1600127-2.17 2.16h-43.39c-1.1945635.0000127-2.1644951-.9654492-2.17-2.16z" fill="#ffdc00"/><path id="Shape" d="m45.83 3h-3c1.1945635-.00001268 2.1644951.96544918 2.17 2.16v50.68c-.0055049 1.1945508-.9754365 2.1600127-2.17 2.16h3c1.1945635.0000127 2.1644951-.9654492 2.17-2.16v-50.68c-.0055049-1.19455082-.9754365-2.16001268-2.17-2.16z" fill="#fec108"/><rect id="Rectangle-path" fill="#9e9e9e" height="6" rx="1" width="22" x="13"/><g fill="#ff9801"><rect id="Rectangle-path" height="12" rx="2" width="12" x="6" y="10"/><rect id="Rectangle-path" height="12" rx="2" width="12" x="6" y="26"/><rect id="Rectangle-path" height="12" rx="2" width="12" x="6" y="42"/></g><path id="Shape" d="m46 48h-21c-.5522847 0-1 .4477153-1 1v2c0 .5522847.4477153 1 1 1h32c.5522847 0 1-.4477153 1-1v-2c0-.5522847-.4477153-1-1-1z" fill="#9e9e9e"/><rect id="Rectangle-path" fill="#3f51b5" height="8" rx="2" width="4" x="28" y="46"/><rect id="Rectangle-path" fill="#3f51b5" height="8" rx="2" transform="matrix(-1 0 0 -1 104 100)" width="4" x="50" y="46"/><rect id="Rectangle-path" fill="#02a9f4" height="16" rx="2" width="4" x="32" y="42"/><rect id="Rectangle-path" fill="#02a9f4" height="16" rx="2" transform="matrix(-1 0 0 -1 96 100)" width="4" x="46" y="42"/></g><g id="Layer_11" fill="#000"><path id="Shape" d="m17 42h-8c-1.65685425 0-3 1.3431458-3 3v8c0 1.6568542 1.34314575 3 3 3h8c1.6568542 0 3-1.3431458 3-3v-8c0-1.6568542-1.3431458-3-3-3zm1 11c0 .5522847-.4477153 1-1 1h-8c-.55228475 0-1-.4477153-1-1v-8c0-.5522847.44771525-1 1-1h8c.5522847 0 1 .4477153 1 1z"/><path id="Shape" d="m20.42 13.19-.42.3v-.49c0-1.6568542-1.3431458-3-3-3h-8c-1.65685425 0-3 1.3431458-3 3v8c0 1.6568542 1.34314575 3 3 3h8c1.6568542 0 3-1.3431458 3-3v-5.06l1.58-1.13c.3252383-.192624.5140678-.5521755.488039-.9292782s-.262467-.7073009-.611086-.8534132c-.3486189-.1461122-.7498314-.0831645-1.036953.1626914zm-2.42 7.81c0 .5522847-.4477153 1-1 1h-8c-.55228475 0-1-.4477153-1-1v-8c0-.5522847.44771525-1 1-1h8c.5522847 0 1 .4477153 1 1v1.91l-3.63 2.6-.48-1c-.2700473-.4487927-.8406385-.6131719-1.3080622-.3768341s-.6732882.7933069-.4719378 1.2768341l1 2c.1322006.2587508.3704088.4472054.6526354.5163221.2822266.0691168.58056.0120601.8173646-.1563221l3.42-2.4z"/><path id="Shape" d="m20.42 29.19-.42.3v-.49c0-1.6568542-1.3431458-3-3-3h-8c-1.65685425 0-3 1.3431458-3 3v8c0 1.6568542 1.34314575 3 3 3h8c1.6568542 0 3-1.3431458 3-3v-5.06l1.58-1.13c.3252383-.192624.5140678-.5521755.488039-.9292782s-.262467-.7073009-.611086-.8534132c-.3486189-.1461122-.7498314-.0831645-1.036953.1626914zm-2.42 7.81c0 .5522847-.4477153 1-1 1h-8c-.55228475 0-1-.4477153-1-1v-8c0-.5522847.44771525-1 1-1h8c.5522847 0 1 .4477153 1 1v1.91l-3.63 2.6-.48-1c-.1440974-.3460386-.4696151-.5824323-.8432591-.6123817s-.73266.1515756-.9300368.4702434c-.1973769.3186678-.1999648.7209575-.0067041 1.0421383l1 2c.1322006.2587508.3704088.4472054.6526354.5163221.2822266.0691168.58056.0120601.8173646-.1563221l3.42-2.4z"/><path id="Shape" d="m26 14h17c.5522847 0 1-.4477153 1-1s-.4477153-1-1-1h-17c-.5522847 0-1 .4477153-1 1s.4477153 1 1 1z"/><path id="Shape" d="m26 20h8c.5522847 0 1-.4477153 1-1s-.4477153-1-1-1h-8c-.5522847 0-1 .4477153-1 1s.4477153 1 1 1z"/><path id="Shape" d="m26 30h17c.5522847 0 1-.4477153 1-1s-.4477153-1-1-1h-17c-.5522847 0-1 .4477153-1 1s.4477153 1 1 1z"/><path id="Shape" d="m26 36h8c.5522847 0 1-.4477153 1-1s-.4477153-1-1-1h-8c-.5522847 0-1 .4477153-1 1s.4477153 1 1 1z"/><path id="Shape" d="m58 48h-2.18c-.5557934-1.5542768-2.2628054-2.3675652-3.82-1.82v-1.18c-.0035644-1.2682549-.8042713-2.3972517-2-2.82v-35.18c0-2.209139-1.790861-4-4-4h-9v-1c0-1.1045695-.8954305-2-2-2h-20c-1.1045695 0-2 .8954305-2 2v1h-9c-2.209139 0-4 1.790861-4 4v49c0 2.209139 1.790861 4 4 4 45.94 0 42.5.15 43.62-.35.9278292.48069 2.0389342.443956 2.932988-.096967.8940538-.5409229 1.442226-1.5080895 1.447012-2.553033v-1.18c1.5571946.5475652 3.2642066-.2657232 3.82-1.82h2.18c1.1045695 0 2-.8954305 2-2v-2c0-1.1045695-.8954305-2-2-2zm-43-46h20v4h-20zm-13 54v-49c0-1.1045695.8954305-2 2-2h9v1c0 1.1045695.8954305 2 2 2h20c1.1045695 0 2-.8954305 2-2v-1h9c1.1045695 0 2 .8954305 2 2v35.18c-1.1957287.4227483-1.9964356 1.5517451-2 2.82v3h-8v-3c0-1.6568542-1.3431458-3-3-3s-3 1.3431458-3 3v1.18c-1.5571946-.5475652-3.2642066.2657232-3.82 1.82h-2.18c-1.1045695 0-2 .8954305-2 2v2c0 1.1045695.8954305 2 2 2h2.18c.5557934 1.5542768 2.2628054 2.3675652 3.82 1.82-.0740862.7315574-.0130725 1.4705016.18 2.18h-28.18c-1.1045695 0-2-.8954305-2-2zm24-4v-2h2v2zm4-3c0-.5522847.4477153-1 1-1s1 .4477153 1 1v4c0 .5522847-.4477153 1-1 1s-1-.4477153-1-1zm4 8v-12c0-.5522847.4477153-1 1-1s1 .4477153 1 1v12c0 .5522847-.4477153 1-1 1s-1-.4477153-1-1zm4-7h8v2h-8zm-.18 8c.24-.68.18-.76.18-4h8c0 3-.07 3.26.18 4-.41 0 1.38 0-8.36 0zm12.18-1c0 .5522847-.4477153 1-1 1s-1-.4477153-1-1v-12c0-.5522847.4477153-1 1-1s1 .4477153 1 1zm3-3c-.5522847 0-1-.4477153-1-1v-4c0-.5522847.4477153-1 1-1s1 .4477153 1 1v4c0 .5522847-.4477153 1-1 1zm5-2h-2v-2h2z"/></g></g></svg>