<svg id="Layer_1" height="512" viewBox="0 0 512 512" width="512" xmlns="http://www.w3.org/2000/svg" data-name="Layer 1"><g fill-rule="evenodd"><path d="m255.747.422c141.384 0 256.007 114.587 256.007 255.963s-114.623 256.035-256.007 256.035-256-114.659-256-256.035 114.624-255.963 256-255.963z" fill="#407fee"/><path d="m148.257 372.53a6.192 6.192 0 1 0 6.59-5.758c-.144-.006-.284-.012-.428-.012a6.192 6.192 0 0 0 -6.162 5.77zm5.225 14.39a13.573 13.573 0 1 1 .969.044c-.322 0-.647-.012-.969-.044zm-55.873-153.788a10.97 10.97 0 0 1 10.95-10.889h.061l73.375.384a10.956 10.956 0 0 1 10.895 11.006l-.862 164.732a10.958 10.958 0 0 1 -10.953 10.889h-.056l-73.38-.384a10.98 10.98 0 0 1 -10.889-11.006zm214.785-124.706a9.539 9.539 0 0 1 11.334-4.346 34.015 34.015 0 0 1 15.7 10.713c21.93 26.559-7.589 70.744-25.229 97.139-1.268 1.9-2.49 3.727-3.633 5.459a3.9 3.9 0 0 0 3.261 6.068h72.687a28.208 28.208 0 0 1 27.948 31.986l-17.848 131.779a20.875 20.875 0 0 1 -20.869 18.235h-141.434a19.442 19.442 0 0 1 -10.3-2.778l-24.111-14.074.738-142.881c41.662-34.495 79.262-80.668 111.756-137.3z" fill="#fff"/></g></svg>