<svg id="Layer_1" height="512" viewBox="0 0 512 512" width="512" xmlns="http://www.w3.org/2000/svg" data-name="Layer 1"><path d="m256.084.083c141.384 0 256 114.587 256 256.035 0 141.377-114.615 255.964-256 255.964s-255.999-114.582-255.999-255.964c0-141.448 114.615-256.035 255.999-256.035zm-161.41 150.6c-1.98 60.071 29.36 128.463 83.855 182.955 52.859 52.856 118.8 83.934 177.549 83.94q2.7 0 5.406-.092a15.24 15.24 0 0 0 11.034-4.947l19.8-20.789a881.369 881.369 0 0 1 -82.846-62.522l-5.158 3.584a15.531 15.531 0 0 1 -16.019 1.171c-42.577-21.226-88.888-67.53-110.11-110.108a15.549 15.549 0 0 1 1.173-16.024l3.584-5.155a881.92 881.92 0 0 1 -62.525-82.84l-20.792 19.79a15.272 15.272 0 0 0 -4.951 11.041zm59.894-56.05a15.379 15.379 0 0 0 -12.238 4.354l-1.268 1.21a870.3 870.3 0 0 0 58.638 78.403l10.377-14.924a4.865 4.865 0 0 0 -.137-5.9l-43.955-56.972a15.353 15.353 0 0 0 -11.417-6.17zm34.732 98.921 4.039-5.8a881.774 881.774 0 0 1 -60.2-80.01l-4.807 4.578a871.148 871.148 0 0 0 60.968 81.232zm159.188 108.536-14.919 10.381a873.062 873.062 0 0 0 78.4 58.638l1.21-1.274a15.972 15.972 0 0 0 -1.818-23.655l-56.973-43.943a4.856 4.856 0 0 0 -5.9-.147zm51.359 81.744 4.577-4.807a883.309 883.309 0 0 1 -80-60.191l-5.809 4.034a870.929 870.929 0 0 0 81.232 60.964z" fill="#4caf50" fill-rule="evenodd"/></svg>